<svg width="55" height="54" viewBox="0 0 55 54" fill="none" xmlns="http://www.w3.org/2000/svg">
  <path d="M5.28709 16H8.96709V34.6667H11.6338V15.6711L24.9671 16V21.3333H30.3004V16H44V34.6667H46.3004V16H50.5938C52.0604 16 53.2604 14.8267 53.2604 13.3333C53.2704 13.043 53.2252 12.7534 53.1271 12.48L46.3004 0H8.96709L2.88709 12.1333C2.6799 12.5411 2.58132 12.9954 2.60085 13.4524C2.62037 13.9094 2.75736 14.3537 2.99858 14.7423C3.2398 15.1309 3.57711 15.4508 3.97797 15.6711C4.37883 15.8914 4.82971 16.0047 5.28709 16ZM11 2.5L45 3L50 12.5L7 12.1333L11 2.5ZM0.96709 37.3333V40.5H7V53.3333H48.9671V40.5H54.3004V37.3333H0.96709ZM45.6604 50.3333H9.60709V40.5H45.6604V50.3333ZM32.7804 24C33.5271 24 34.1138 24.5867 34.1138 25.3333V25.4933L33.1004 33.4933C32.9671 34.16 32.4604 34.6667 31.7938 34.6667H23.4738C22.8071 34.6667 22.3004 34.16 22.1671 33.4933L21.1538 25.4933C21.1153 25.1446 21.2132 24.7945 21.4269 24.5162C21.6406 24.2379 21.9536 24.0529 22.3004 24H32.7804Z" fill="#D1A284"/>
</svg>
