<?xml version="1.0" encoding="utf-8"?>
<!-- Generator: Adobe Illustrator 19.0.0, SVG Export Plug-In . SVG Version: 6.00 Build 0)  -->
<svg version="1.1" id="Calque_1" xmlns="http://www.w3.org/2000/svg" xmlns:xlink="http://www.w3.org/1999/xlink" x="0px" y="0px"
	 viewBox="0 0 595.3 841.9" style="enable-background:new 0 0 595.3 841.9;" xml:space="preserve">
<style type="text/css">
	.st0{stroke:#FFFFFF;stroke-width:0.5;stroke-miterlimit:10;}
	.st1{fill:#F0812C;}
	.st2{fill:#A4BA1B;stroke:#A4BA1B;stroke-miterlimit:10;}
	.st3{fill:#4B283C;}
</style>
<g id="XMLID_1_">
	<g id="XMLID_83_">
		<g id="XMLID_134_">
			<path id="XMLID_144_" class="st0" d="M210.3,337.2v24.9c7.5-9,15.3-16.5,22.9-25h5.3L227.7,349l11.2,18.4h-4.2l-9.9-15.1
				l-13.9,15.1h-3.1v-30.2H210.3z"/>
			<path id="XMLID_141_" class="st0" d="M239.6,367.4l3.8-30.2h28.6l4,30.2h-2.8l-1.6-12.3h-28l-1.5,12.3H239.6z M270.9,349.5
				l-0.9-7.1h-24.8l-0.9,7.1H270.9z"/>
			<path id="XMLID_139_" class="st0" d="M277.6,367.4v-30.2h2.7v12.2H307v-12.2h2.6v30.2H307v-12.3h-26.7v12.3H277.6z"/>
			<path id="XMLID_137_" class="st0" d="M341.3,337.2v5.6h-27.5v6.6h26.5v5.7h-26.5v6.8h27.6v5.6h-30.2v-30.2H341.3z"/>
			<path id="XMLID_135_" class="st0" d="M342.9,337.2h29.7v5.6h-27v6.6h26.1v5.6h-26.1v12.3h-2.7V337.2z"/>
		</g>
	</g>
	<g id="XMLID_57_">
		<path id="XMLID_58_" class="st1" d="M212.1,372.7h16.4v3.5h-14.9v4.1h14.5v3.5h-14.5v7.7h-1.5V372.7z"/>
		<path id="XMLID_60_" class="st1" d="M232,377.9h11.3c1.1,0,2,2.9,2,6.4c0,4-0.6,7.3-2,7.3H232c-1.3,0-1.9-3.1-1.9-6.9
			C230,380.9,230.7,377.9,232,377.9z M232,389h11.3c0.7,0,0.7-3.5,0.7-4.9c0-1.3-0.2-3.7-0.7-3.7H232c-0.6,0-0.8,3-0.8,4.4
			C231.2,386.2,231.4,389,232,389z"/>
		<path id="XMLID_63_" class="st1" d="M246.8,378.2h1.4v8.4c0,1.1,0.2,2,0.6,2h12.8c0.4,0,0.8-1.3,0.8-2.6v-7.7h1.4v13.3h-1.4V390
			c-0.2,1.4-0.6,1.5-1.1,1.5h-13.1c-0.9,0-1.4-2.2-1.4-5V378.2z"/>
		<path id="XMLID_65_" class="st1" d="M266.8,377.8v1.8c0.2-1.5,0.7-1.5,1.2-1.5h10.9c0.9,0,1.4,2.2,1.4,5v8.4h-1.4V383
			c0-1.1-0.2-2-0.6-2h-10.7c-0.4,0-0.8,1.3-0.8,2.6v7.8h-1.4v-13.7H266.8z"/>
		<path id="XMLID_67_" class="st1" d="M283.6,378.1h11.2c0.4,0,0.9,0.7,1.1,1.9v-7.4h1.4v18.8h-1.4V390c-0.2,1.3-0.7,1.7-1.1,1.7
			h-11.2c-1.2,0-1.8-3.4-1.8-6.8C281.8,381.5,282.3,378.1,283.6,378.1z M283.2,385.1c0,1.4,0.2,3.9,0.7,3.9H295
			c0.6,0,0.9-2.5,0.9-4.1c0-1.5-0.3-3.8-0.9-3.8h-11.1c-0.4,0-0.6,1.4-0.7,2.7C283.2,384.3,283.2,384.7,283.2,385.1z"/>
		<path id="XMLID_70_" class="st1" d="M298.8,388.2c0-3.3,0.9-4.5,1.8-4.5h12.7v-0.6c0-0.8-0.1-1.7-0.4-1.7h-13.4v-3.3h13.6
			c0.9,0,1.6,1.4,1.6,4.3v9h-1.3V390c-0.2,1.1-0.6,1.7-1,1.7h-12.4c-0.3,0-0.6-0.3-0.8-1C298.9,390.1,298.8,389.3,298.8,388.2z
			 M300.5,389.2H313c0.2,0,0.4-0.7,0.4-1.3v-2.1h-12.4c-0.4,0-0.7,0.3-0.7,1.8C300.2,388.3,300.3,389.2,300.5,389.2z"/>
		<path id="XMLID_73_" class="st1" d="M315.8,378.1h0.6v-3.8h1.4v3.8h13.6v3h-13.6v5.9c0,0.6,0.1,1.3,0.3,1.3c0.3,0,0.7-1.1,0.8-1.9
			v4.3c-0.3,0.7-0.7,1-1.1,1c-1,0-1.4-1.6-1.4-4.6v-6.1h-0.6V378.1z"/>
		<path id="XMLID_75_" class="st1" d="M332.9,391.5v-13h1.4v13H332.9z M332.9,372.7h1.4v3.7h-1.4V372.7z"/>
		<path id="XMLID_78_" class="st1" d="M337.7,377.9h11.3c1.1,0,2,2.9,2,6.4c0,4-0.6,7.3-2,7.3h-11.3c-1.3,0-1.9-3.1-1.9-6.9
			C335.8,380.9,336.5,377.9,337.7,377.9z M337.7,389h11.3c0.7,0,0.7-3.5,0.7-4.9c0-1.3-0.2-3.7-0.7-3.7h-11.3c-0.6,0-0.8,3-0.8,4.4
			C337,386.2,337.1,389,337.7,389z"/>
		<path id="XMLID_81_" class="st1" d="M354,377.8v1.8c0.2-1.5,0.7-1.5,1.2-1.5H366c0.9,0,1.4,2.2,1.4,5v8.4h-1.4V383
			c0-1.1-0.2-2-0.6-2h-10.7c-0.4,0-0.8,1.3-0.8,2.6v7.8h-1.4v-13.7H354z"/>
	</g>
	<g id="XMLID_37_">
		<path id="XMLID_48_" class="st1" d="M195.9,343c-1.1-5.7-1.7-11.5-1.7-17.4c0-51.9,42.9-93.9,95.9-93.9c53,0,95.9,42,95.9,93.9
			c0,6-0.6,11.8-1.7,17.4l3.9,1.8l4.6-1.8c1-5.7,1.5-11.5,1.5-17.4c0-56.4-46.7-102.1-104.3-102.1c-57.6,0-104.3,45.7-104.3,102.1
			c0,6,0.5,11.8,1.5,17.4l4.5,2.9L195.9,343z"/>
		<path id="XMLID_47_" class="st2" d="M288.1,231.8v-8.2c-56.7,1.1-102.3,46.3-102.3,102c0,6,0.5,11.8,1.5,17.4l4.5,2.9l4-2.9
			c-1.1-5.7-1.7-11.5-1.7-17.4C194.2,274.4,236.1,232.8,288.1,231.8z"/>
	</g>
	<g id="XMLID_8_">
		<g id="XMLID_9_">
			<path id="XMLID_16_" class="st3" d="M199.9,337.1c-3.4,4.3-3.9,4-0.9-0.7l31-48.9c2.9-4.6,7.7-6.9,10.6-5
				c2.9,1.9,7.4-0.5,10.1-5.4l18.5-34c2.6-4.8,7.4-5.1,10.5-0.6l5.5,7.8c3.2,4.5,7.2,6.9,8.9,5.3c1.8-1.6,5.7,0.8,8.7,5.4l12.8,19.2
				c3.1,4.6,8.1,4.6,11.3,0.1l5.5-7.8c3.2-4.5,8-4.3,10.8,0.4l38.5,65.4c2.8,4.7,2.6,4.9-0.4,0.3l-35.4-53.8c-3-4.6-6.5-4-7.7,1.4
				l-2,8.9c-1.2,5.4-1.2,14.1,0.1,19.5l1,4.2c1.3,5.4,0,5.9-2.9,1.2l-31.3-51.8c-2.8-4.7-5.2-4.1-5.3,1.4l0,3.7
				c-0.1,5.5,1.5,14.2,3.5,19.3l13.4,35c2,5.1,1.7,5.3-0.7,0.3l-31.4-66.6c-2.3-5-3.2-4.7-1.9,0.7l7.3,30.5c1.3,5.3,0.8,5.5-1,0.3
				l-11.4-32.7c-1.8-5.2-4.5-5.1-6,0.2l-4.3,15.5c-1.5,5.3-2.4,5.1-2-0.3l0.1-1.1c0.4-5.5-0.7-5.7-2.3-0.4l-17.9,56.7
				c-1.7,5.2-2.7,5.1-2.2-0.4l0.9-12.2c0.4-5.5-1.4-12.6-4.1-15.8c-2.7-3.2-7.7-2.3-11.1,2L199.9,337.1z"/>
		</g>
	</g>
</g>
</svg>
