<svg width="210" height="170" viewBox="0 0 210 170" fill="none" xmlns="http://www.w3.org/2000/svg">
<path d="M25.6 114.7V139.6C33.1 130.6 40.9 123.1 48.5 114.6H53.8L43 126.5L54.2 144.9H50L40.1 129.8L26.2 144.9H23.1V114.7H25.6Z" fill="black" stroke="white" stroke-width="0.5" stroke-miterlimit="10"/>
<path d="M54.9 144.9L58.7 114.7H87.3L91.3 144.9H88.5L86.9 132.6H58.9L57.4 144.9H54.9ZM86.2 127L85.3 119.9H60.5L59.6 127H86.2Z" fill="black" stroke="white" stroke-width="0.5" stroke-miterlimit="10"/>
<path d="M92.9 144.9V114.7H95.6V126.9H122.3V114.7H124.9V144.9H122.3V132.6H95.6V144.9H92.9Z" fill="black" stroke="white" stroke-width="0.5" stroke-miterlimit="10"/>
<path d="M156.6 114.7V120.3H129.1V126.9H155.6V132.6H129.1V139.4H156.7V145H126.5V114.8H156.6V114.7Z" fill="black" stroke="white" stroke-width="0.5" stroke-miterlimit="10"/>
<path d="M158.2 114.7H187.9V120.3H160.9V126.9H187V132.5H160.9V144.8H158.2V114.7Z" fill="black" stroke="white" stroke-width="0.5" stroke-miterlimit="10"/>
<path d="M27.4 150.2H43.8V153.7H28.9V157.8H43.4V161.3H28.9V169H27.4V150.2Z" fill="#F0812C"/>
<path d="M47.3 155.4H58.6C59.7 155.4 60.6 158.3 60.6 161.8C60.6 165.8 60 169.1 58.6 169.1H47.3C46 169.1 45.4 166 45.4 162.2C45.3 158.4 46 155.4 47.3 155.4ZM47.3 166.5H58.6C59.3 166.5 59.3 163 59.3 161.6C59.3 160.3 59.1 157.9 58.6 157.9H47.3C46.7 157.9 46.5 160.9 46.5 162.3C46.5 163.7 46.7 166.5 47.3 166.5Z" fill="#F0812C"/>
<path d="M62.1 155.7H63.5V164.1C63.5 165.2 63.7 166.1 64.1 166.1H76.9C77.3 166.1 77.7 164.8 77.7 163.5V155.8H79.1V169.1H77.7V167.5C77.5 168.9 77.1 169 76.6 169H63.5C62.6 169 62.1 166.8 62.1 164V155.7Z" fill="#F0812C"/>
<path d="M82.0999 155.3V157.1C82.2999 155.6 82.8 155.6 83.3 155.6H94.2C95.1 155.6 95.5999 157.8 95.5999 160.6V169H94.2V160.5C94.2 159.4 93.9999 158.5 93.5999 158.5H82.9C82.5 158.5 82.0999 159.8 82.0999 161.1V168.9H80.7V155.2H82.0999V155.3Z" fill="#F0812C"/>
<path d="M98.9 155.6H110.1C110.5 155.6 111 156.3 111.2 157.5V150.1H112.6V168.9H111.2V167.5C111 168.8 110.5 169.2 110.1 169.2H98.9C97.7 169.2 97.1 165.8 97.1 162.4C97.1 159 97.6 155.6 98.9 155.6ZM98.5 162.6C98.5 164 98.7 166.5 99.2 166.5H110.3C110.9 166.5 111.2 164 111.2 162.4C111.2 160.9 110.9 158.6 110.3 158.6H99.2C98.8 158.6 98.6 160 98.5 161.3C98.5 161.8 98.5 162.2 98.5 162.6Z" fill="#F0812C"/>
<path d="M114.1 165.7C114.1 162.4 115 161.2 115.9 161.2H128.6V160.6C128.6 159.8 128.5 158.9 128.2 158.9H114.8V155.6H128.4C129.3 155.6 130 157 130 159.9V168.9H128.7V167.5C128.5 168.6 128.1 169.2 127.7 169.2H115.3C115 169.2 114.7 168.9 114.5 168.2C114.2 167.6 114.1 166.8 114.1 165.7ZM115.8 166.7H128.3C128.5 166.7 128.7 166 128.7 165.4V163.3H116.3C115.9 163.3 115.6 163.6 115.6 165.1C115.5 165.8 115.6 166.7 115.8 166.7Z" fill="#F0812C"/>
<path d="M131.1 155.6H131.7V151.8H133.1V155.6H146.7V158.6H133.1V164.5C133.1 165.1 133.2 165.8 133.4 165.8C133.7 165.8 134.1 164.7 134.2 163.9V168.2C133.9 168.9 133.5 169.2 133.1 169.2C132.1 169.2 131.7 167.6 131.7 164.6V158.5H131.1V155.6Z" fill="#F0812C"/>
<path d="M148.2 169V156H149.6V169H148.2ZM148.2 150.2H149.6V153.9H148.2V150.2Z" fill="#F0812C"/>
<path d="M153 155.4H164.3C165.4 155.4 166.3 158.3 166.3 161.8C166.3 165.8 165.7 169.1 164.3 169.1H153C151.7 169.1 151.1 166 151.1 162.2C151.1 158.4 151.8 155.4 153 155.4ZM153 166.5H164.3C165 166.5 165 163 165 161.6C165 160.3 164.8 157.9 164.3 157.9H153C152.4 157.9 152.2 160.9 152.2 162.3C152.3 163.7 152.4 166.5 153 166.5Z" fill="#F0812C"/>
<path d="M169.3 155.3V157.1C169.5 155.6 170 155.6 170.5 155.6H181.3C182.2 155.6 182.7 157.8 182.7 160.6V169H181.3V160.5C181.3 159.4 181.1 158.5 180.7 158.5H170C169.6 158.5 169.2 159.8 169.2 161.1V168.9H167.8V155.2H169.3V155.3Z" fill="#F0812C"/>
<path d="M11.2 120.5C10.1 114.8 9.5 109 9.5 103.1C9.5 51.2 52.4 9.2 105.4 9.2C158.4 9.2 201.3 51.2 201.3 103.1C201.3 109.1 200.7 114.9 199.6 120.5L203.5 122.3L208.1 120.5C209.1 114.8 209.6 109 209.6 103.1C209.6 46.7 162.9 1 105.3 1C47.7 1 1 46.7 1 103.1C1 109.1 1.5 114.9 2.5 120.5L7 123.4L11.2 120.5Z" fill="#F0812C"/>
<path d="M103.4 9.30009V1.1001C46.7 2.2001 1.09998 47.4001 1.09998 103.1C1.09998 109.1 1.59998 114.9 2.59998 120.5L7.09998 123.4L11.1 120.5C9.99998 114.8 9.39998 109 9.39998 103.1C9.49998 51.9001 51.4 10.3001 103.4 9.30009Z" fill="#A4BA1B" stroke="#A4BA1B" stroke-miterlimit="10"/>
<path d="M15.2 114.6C11.8 118.9 11.3 118.6 14.3 113.9L45.3 65.0001C48.2 60.4001 53 58.1001 55.9 60.0001C58.8 61.9001 63.3 59.5001 66 54.6001L84.5 20.6001C87.1 15.8001 91.9 15.5001 95 20.0001L100.5 27.8001C103.7 32.3001 107.7 34.7001 109.4 33.1001C111.2 31.5001 115.1 33.9001 118.1 38.5001L130.9 57.7001C134 62.3001 139 62.3001 142.2 57.8001L147.7 50.0001C150.9 45.5001 155.7 45.7001 158.5 50.4001L197 115.8C199.8 120.5 199.6 120.7 196.6 116.1L161.2 62.3001C158.2 57.7001 154.7 58.3001 153.5 63.7001L151.5 72.6001C150.3 78.0001 150.3 86.7001 151.6 92.1001L152.6 96.3001C153.9 101.7 152.6 102.2 149.7 97.5001L118.4 45.7001C115.6 41.0001 113.2 41.6001 113.1 47.1001V50.8001C113 56.3001 114.6 65.0001 116.6 70.1001L130 105.1C132 110.2 131.7 110.4 129.3 105.4L97.9 38.8001C95.6 33.8001 94.7 34.1001 96 39.5001L103.3 70.0001C104.6 75.3001 104.1 75.5001 102.3 70.3001L90.9 37.6001C89.1 32.4001 86.4 32.5001 84.9 37.8001L80.6 53.3001C79.1 58.6001 78.2 58.4001 78.6 53.0001L78.7 51.9001C79.1 46.4001 78 46.2001 76.4 51.5001L58.5 108.2C56.8 113.4 55.8 113.3 56.3 107.8L57.2 95.6001C57.6 90.1001 55.8 83.0001 53.1 79.8001C50.4 76.6001 45.4 77.5001 42 81.8001L15.2 114.6Z" fill="#4B283C"/>
</svg>
